<?xml version="1.0" standalone="no"?>
<!DOCTYPE svg PUBLIC "-//W3C//DTD SVG 20010904//EN"
 "http://www.w3.org/TR/2001/REC-SVG-20010904/DTD/svg10.dtd">
<svg version="1.0" xmlns="http://www.w3.org/2000/svg"
 width="2000.000000pt" height="1500.000000pt" viewBox="0 0 2000.000000 1500.000000"
 preserveAspectRatio="xMidYMid meet">

<g transform="translate(0.000000,1500.000000) scale(0.100000,-0.100000)"
fill="#000000" stroke="none">
<path d="M0 7500 l0 -7500 10000 0 10000 0 0 7500 0 7500 -10000 0 -10000 0 0
-7500z m10285 4394 c142 -30 163 -33 315 -44 85 -6 182 -15 215 -21 33 -5 103
-16 156 -23 53 -8 105 -19 115 -25 22 -12 152 -41 185 -41 12 0 45 -11 73 -25
29 -14 82 -29 119 -33 36 -5 74 -15 84 -24 22 -20 163 -68 197 -68 37 0 126
-37 166 -69 20 -16 56 -38 80 -51 25 -12 74 -42 110 -65 36 -24 89 -52 117
-63 29 -11 83 -42 120 -70 38 -27 93 -63 123 -79 72 -38 160 -103 230 -168 30
-28 69 -59 85 -69 17 -10 36 -30 43 -44 6 -15 31 -39 54 -55 83 -53 154 -109
213 -167 33 -32 74 -62 90 -66 19 -5 71 -47 140 -115 89 -87 117 -121 139
-171 84 -184 155 -322 205 -398 61 -91 183 -327 221 -425 31 -83 58 -151 86
-215 24 -56 77 -219 135 -410 18 -60 44 -122 60 -144 26 -36 29 -47 29 -120 0
-44 4 -105 10 -135 26 -155 40 -272 40 -331 0 -83 28 -143 102 -225 77 -84 81
-95 74 -179 -6 -56 -4 -75 8 -91 27 -35 18 -57 -44 -115 -59 -56 -60 -57 -90
-171 -16 -62 -35 -162 -40 -222 -6 -59 -24 -162 -40 -230 -38 -153 -38 -168
-2 -189 16 -9 50 -40 77 -69 l48 -52 -27 -14 c-23 -12 -31 -12 -49 0 -37 23
-103 46 -114 39 -6 -4 -25 -56 -42 -117 -42 -147 -92 -276 -163 -417 -32 -65
-58 -122 -58 -128 0 -9 -136 -297 -163 -345 -6 -11 -31 -60 -55 -110 -64 -130
-89 -162 -246 -319 -78 -77 -191 -194 -251 -260 -61 -65 -123 -127 -140 -137
-16 -10 -51 -46 -76 -80 -45 -60 -46 -63 -37 -106 7 -32 6 -48 -2 -58 -16 -19
-49 -19 -74 0 -32 24 -52 18 -137 -40 -44 -30 -88 -55 -97 -55 -10 0 -40 -19
-67 -41 -28 -23 -74 -58 -104 -78 -165 -110 -229 -153 -258 -172 -24 -15 -33
-28 -33 -49 0 -41 -16 -48 -106 -47 -72 1 -92 -4 -160 -33 -44 -19 -97 -47
-120 -62 -22 -16 -100 -49 -173 -74 -102 -35 -156 -61 -232 -110 -54 -35 -99
-67 -99 -72 0 -20 -41 -50 -77 -55 -22 -4 -49 -17 -62 -31 -24 -25 -25 -61 -6
-154 6 -24 3 -38 -10 -52 -41 -45 -84 -16 -138 91 -54 108 -119 133 -206 82
-33 -20 -64 -29 -111 -33 -62 -5 -65 -6 -68 -32 -2 -15 4 -38 13 -52 16 -24
15 -79 -2 -139 -8 -30 -49 -39 -91 -22 -52 22 -68 40 -82 91 -7 24 -18 44 -24
44 -7 0 -40 -9 -73 -21 -86 -28 -113 -24 -137 25 -21 44 -50 59 -146 76 -81
14 -145 33 -189 55 -46 24 -141 30 -260 15 -92 -11 -106 -16 -142 -46 -23 -19
-44 -34 -49 -34 -11 0 -40 47 -40 65 0 13 -6 15 -31 10 -41 -9 -101 31 -129
85 -23 46 -41 55 -126 65 -32 4 -66 13 -74 20 -8 7 -30 15 -47 17 -29 4 -31 3
-19 -11 26 -30 65 -113 59 -127 -3 -8 -18 -14 -33 -14 -52 0 -60 -8 -60 -64 0
-45 -4 -55 -30 -78 -16 -14 -30 -33 -30 -42 0 -19 92 -73 139 -82 25 -5 36
-14 47 -40 8 -18 14 -43 14 -54 0 -28 -91 -123 -158 -166 -63 -41 -103 -44
-137 -9 -22 21 -25 33 -25 98 0 41 7 94 15 118 9 24 14 48 11 55 -2 6 -30 13
-61 16 -78 7 -88 19 -73 92 12 53 11 59 -7 72 -10 8 -32 14 -48 14 -15 0 -38
5 -49 11 -20 11 -20 12 10 25 18 7 32 20 32 29 0 30 -29 85 -63 119 -23 22
-36 47 -40 74 -4 22 -21 61 -39 88 -36 54 -49 60 -193 90 -80 16 -133 43 -291
148 -59 39 -158 124 -267 230 -34 32 -88 80 -122 107 -33 26 -90 80 -125 120
-76 85 -133 129 -169 129 -15 0 -61 -17 -104 -39 -67 -33 -77 -36 -77 -21 0
31 -48 60 -99 60 -72 0 -324 -28 -358 -41 l-31 -10 15 -36 c17 -42 8 -53 -47
-53 -19 0 -48 -7 -65 -16 -16 -9 -52 -17 -80 -18 -27 -1 -59 -6 -70 -10 -33
-15 35 53 73 73 l33 17 -19 24 -19 23 -41 -37 c-24 -22 -49 -36 -59 -34 -29 6
-20 61 15 104 l31 37 -21 28 c-12 16 -47 48 -78 72 -31 25 -70 64 -86 88 -31
47 -100 117 -185 190 l-54 46 -65 -34 c-36 -19 -74 -45 -85 -59 -26 -31 -82
-43 -91 -20 -10 25 22 66 52 66 18 0 41 17 82 61 31 34 58 65 60 68 1 4 -14
33 -33 65 -19 32 -35 67 -35 78 0 11 -5 28 -11 39 -10 20 -10 20 -44 -1 -27
-17 -38 -19 -55 -10 -29 16 -25 31 21 79 l42 43 -6 62 -6 63 48 47 c27 26 58
66 69 89 12 23 49 69 82 102 34 33 68 72 76 88 12 21 22 27 49 27 28 0 39 6
60 37 14 21 25 43 25 49 0 6 9 19 20 29 12 11 20 30 20 49 -1 57 -25 135 -48
156 -29 27 -28 56 4 76 14 10 34 35 46 58 18 35 20 52 15 121 -3 44 -20 138
-36 208 -17 71 -31 149 -31 175 0 26 -5 65 -11 87 -6 22 -15 60 -20 84 -5 25
-16 55 -24 68 -19 29 -216 129 -238 120 -8 -3 -45 -51 -81 -106 -54 -81 -72
-102 -101 -111 -43 -14 -85 3 -99 41 -10 31 8 60 110 172 75 82 82 109 58 227
-13 64 -15 114 -11 214 6 163 34 260 95 333 22 26 51 75 65 108 33 80 69 224
63 250 -3 11 11 58 30 105 20 47 46 116 60 154 13 38 37 90 53 115 16 25 50
89 75 141 25 52 54 111 65 130 92 164 121 223 132 275 7 33 22 73 33 89 26 38
24 100 -5 191 -32 101 -31 185 4 257 15 31 27 61 27 65 0 16 75 81 119 103 24
12 93 33 155 47 61 13 123 32 139 41 15 9 85 84 154 167 178 211 634 661 740
730 44 30 85 60 89 66 4 7 24 63 45 123 36 107 43 118 82 130 15 5 16 9 5 25
-10 17 -8 28 12 71 15 29 30 48 38 45 7 -3 12 4 12 17 0 18 -4 20 -35 15 -26
-4 -35 -2 -35 8 0 19 28 45 47 45 21 0 53 -29 53 -48 0 -12 10 -13 58 -6 88
14 179 9 265 -13 l78 -20 77 27 c169 60 203 70 352 105 85 21 180 47 210 60
30 13 84 28 120 35 93 16 124 27 165 60 45 36 72 45 89 31 9 -8 46 -8 127 0
63 6 150 8 194 5 61 -5 89 -3 115 8 48 21 309 21 405 0z"/>
<path d="M8045 11540 c3 -5 19 -10 35 -10 16 0 32 5 35 10 4 6 -10 10 -35 10
-25 0 -39 -4 -35 -10z"/>
<path d="M9865 11386 c-91 -15 -126 -37 -177 -111 -48 -68 -172 -195 -191
-195 -7 0 -30 12 -51 26 -27 19 -44 24 -54 18 -8 -5 -31 -48 -51 -94 -20 -47
-43 -96 -50 -110 -23 -43 -113 -129 -142 -135 -36 -8 -79 -58 -112 -126 -74
-159 -87 -193 -87 -235 0 -47 -17 -65 -72 -78 -15 -3 -29 -15 -33 -26 -8 -24
11 -95 36 -138 10 -18 19 -42 19 -53 0 -37 112 -118 145 -105 16 6 33 69 55
201 20 123 47 185 81 185 10 0 19 -3 19 -6 0 -13 -70 -273 -87 -323 -16 -49
-22 -55 -63 -71 l-45 -18 -5 -1513 c-3 -833 -9 -1523 -12 -1534 -4 -11 -14
-54 -24 -95 -104 -463 -496 -710 -1048 -662 -148 14 -249 36 -353 79 l-68 29
-3 272 -2 272 54 -30 c136 -77 298 -116 452 -108 245 13 376 127 414 360 6 41
10 571 10 1501 l0 1437 245 0 246 0 -53 43 c-34 28 -66 66 -88 107 -35 64
-105 130 -177 165 -46 22 -127 19 -174 -7 -38 -21 -40 -21 -108 -5 -79 19
-140 12 -219 -25 -39 -18 -70 -22 -177 -26 -73 -2 -163 1 -205 8 -41 6 -115
14 -163 17 -82 5 -90 4 -113 -17 -28 -27 -30 -56 -9 -150 24 -109 29 -309 11
-443 -18 -136 -44 -201 -113 -277 -62 -69 -109 -99 -243 -156 -140 -58 -195
-107 -259 -231 -24 -45 -80 -137 -125 -205 -84 -126 -146 -262 -200 -438 -21
-67 -26 -106 -26 -182 0 -54 -5 -155 -11 -225 -9 -95 -9 -164 0 -268 6 -77 15
-224 21 -326 5 -103 14 -198 19 -213 6 -14 19 -79 30 -143 11 -65 34 -163 51
-218 95 -306 127 -398 165 -475 24 -47 64 -129 91 -184 27 -54 78 -144 114
-200 36 -55 78 -123 94 -151 16 -27 45 -70 65 -95 20 -25 45 -58 56 -75 25
-39 178 -229 224 -279 20 -21 74 -70 121 -109 47 -39 91 -79 98 -89 7 -10 35
-29 61 -43 65 -32 186 -125 297 -227 127 -117 314 -248 353 -248 6 0 21 -11
35 -23 34 -32 333 -169 476 -219 91 -31 131 -40 192 -41 52 -1 79 -6 83 -14 2
-8 23 -13 50 -13 39 0 47 4 57 25 14 30 24 31 63 5 36 -24 103 -26 131 -5 26
20 67 19 159 -5 43 -11 82 -20 86 -20 4 0 22 12 39 26 28 24 35 26 66 16 19
-5 52 -8 73 -5 33 5 107 -8 202 -33 9 -2 33 9 53 25 51 41 86 28 86 -31 0 -35
27 -38 39 -4 13 33 36 38 74 16 42 -26 44 -26 58 15 7 19 18 35 24 35 5 0 30
-23 54 -51 59 -69 83 -79 121 -51 16 12 34 22 40 22 5 0 10 19 10 43 0 50 15
73 52 82 21 5 33 1 52 -19 21 -20 26 -35 26 -76 0 -82 8 -90 96 -90 54 0 94 7
147 25 39 14 126 39 192 56 96 25 132 29 180 25 56 -6 66 -4 142 33 45 22 94
43 110 47 75 19 512 293 684 430 42 33 93 71 115 84 21 13 77 55 123 93 47 38
91 71 98 74 7 3 13 11 13 19 0 7 8 18 18 23 10 5 38 35 62 67 25 31 69 84 99
118 29 33 74 90 99 126 25 36 64 90 87 120 23 30 55 80 70 110 15 30 41 74 57
98 63 92 275 536 313 657 21 66 51 147 66 180 49 105 139 471 168 680 31 223
35 373 16 631 -18 253 -53 455 -109 639 -67 218 -84 281 -90 329 -8 62 -23 79
-111 120 -83 40 -148 94 -175 147 -28 55 -26 151 5 266 l26 93 -20 42 c-11 24
-49 88 -86 143 -37 55 -75 116 -85 135 -25 50 -160 222 -234 300 -34 36 -83
91 -109 122 -60 72 -206 194 -283 238 -32 18 -70 43 -84 56 -105 95 -370 228
-488 245 -183 27 -209 28 -294 17 -81 -11 -90 -10 -150 12 -91 33 -225 102
-284 147 -28 21 -119 96 -202 168 -135 115 -152 133 -152 160 0 42 -16 55 -67
55 -63 0 -98 -19 -192 -104 -48 -43 -98 -80 -117 -85 -74 -21 -148 28 -228
149 -62 93 -105 105 -281 76z m1241 -1397 c354 -34 627 -147 823 -341 218
-214 321 -479 322 -825 0 -294 -72 -527 -228 -730 -106 -140 -275 -269 -435
-335 -43 -18 -78 -35 -78 -40 0 -4 218 -345 485 -757 267 -413 488 -757 491
-765 5 -14 -31 -16 -338 -16 l-345 0 -446 723 -446 722 -255 3 -256 2 0 -725
0 -725 -290 0 -290 0 0 1910 0 1910 588 0 c342 0 634 -4 698 -11z m-1446
-4719 c0 -5 -7 -10 -15 -10 -8 0 -15 -4 -15 -8 0 -13 32 -106 39 -115 4 -4 20
25 37 64 16 39 33 72 38 73 5 0 22 -34 39 -78 l31 -79 17 49 c22 62 23 94 4
94 -8 0 -15 5 -15 10 0 6 23 10 50 10 28 0 50 -4 50 -10 0 -5 -6 -10 -14 -10
-8 0 -25 -31 -42 -77 -15 -43 -31 -88 -36 -101 -11 -33 -21 -22 -54 58 -16 38
-31 70 -34 70 -3 0 -18 -34 -34 -75 -16 -41 -32 -75 -36 -75 -4 0 -23 43 -41
97 -23 64 -40 98 -51 101 -36 9 -17 22 32 22 28 0 50 -4 50 -10z m470 -36 c0
-45 0 -45 22 -30 30 21 50 20 76 -4 15 -14 22 -33 22 -59 0 -47 -27 -74 -72
-73 -85 3 -78 -6 -78 93 0 70 -3 91 -15 95 -25 10 -17 24 15 24 29 0 30 -2 30
-46z m410 31 c64 -33 76 -117 24 -166 -22 -21 -37 -24 -110 -28 -57 -2 -84 1
-84 8 0 6 9 11 20 11 18 0 20 7 20 85 0 78 -2 85 -20 85 -11 0 -20 5 -20 10 0
16 137 12 170 -5z m670 -80 c0 -78 3 -95 15 -95 8 0 15 -4 15 -10 0 -5 -20
-10 -45 -10 -25 0 -45 5 -45 10 0 6 7 10 15 10 12 0 15 16 15 85 0 69 -3 85
-15 85 -8 0 -15 5 -15 10 0 6 14 10 30 10 l30 0 0 -95z m1220 45 c0 -15 7 -20
25 -20 14 0 25 -4 25 -10 0 -5 -11 -10 -26 -10 -24 0 -25 -2 -22 -47 3 -45 5
-48 30 -48 39 -1 45 -13 13 -25 -22 -8 -33 -7 -51 5 -20 13 -24 24 -24 65 0
38 -4 50 -15 50 -8 0 -15 5 -15 10 0 6 7 10 15 10 8 0 15 9 15 20 0 11 7 20
15 20 8 0 15 -9 15 -20z m-2392 -26 c47 -33 12 -79 -55 -71 -48 5 -53 -1 -23
-28 18 -16 33 -17 79 -4 31 9 19 -20 -12 -30 -41 -14 -78 -3 -101 31 -23 33
-20 56 13 89 33 32 65 37 99 13z m710 0 c47 -33 12 -80 -54 -72 -37 4 -45 -10
-19 -32 10 -8 29 -10 55 -6 49 8 53 -8 7 -23 -59 -20 -107 11 -107 69 0 64 67
100 118 64z m360 0 c47 -33 12 -79 -55 -71 -48 5 -53 -1 -23 -28 18 -16 33
-17 79 -4 31 9 19 -20 -12 -30 -41 -14 -78 -3 -101 31 -23 33 -20 56 13 89 33
32 65 37 99 13z m295 -15 c50 -60 -14 -147 -88 -119 -36 14 -54 38 -55 71 -1
69 97 102 143 48z m194 16 c69 -48 6 -165 -72 -135 -23 9 -25 7 -25 -20 0 -20
5 -30 15 -30 8 0 15 -4 15 -10 0 -5 -20 -10 -45 -10 -25 0 -45 5 -45 10 0 6 7
10 15 10 12 0 15 16 15 85 0 69 -3 85 -15 85 -8 0 -15 5 -15 10 0 6 14 10 30
10 17 0 30 -5 30 -11 0 -5 10 -3 22 5 28 20 48 20 75 1z m211 -3 c16 -17 18
-17 43 1 49 36 89 0 89 -79 0 -19 5 -34 10 -34 6 0 10 -4 10 -10 0 -5 -18 -10
-40 -10 -43 0 -49 6 -24 25 13 9 15 20 10 49 -8 44 -27 54 -61 32 -29 -19 -35
-73 -10 -82 28 -11 15 -24 -25 -24 -22 0 -40 5 -40 10 0 6 5 10 10 10 6 0 10
20 10 45 0 53 -17 66 -55 41 -19 -12 -25 -25 -25 -51 0 -24 5 -35 15 -35 8 0
15 -4 15 -10 0 -5 -20 -10 -45 -10 -25 0 -45 5 -45 10 0 6 7 10 15 10 11 0 15
12 15 50 0 38 -4 50 -15 50 -8 0 -15 5 -15 10 0 6 14 10 30 10 17 0 30 -5 30
-10 0 -6 12 -4 28 4 36 20 49 20 70 -2z m302 -2 c25 -25 25 -32 0 -55 -15 -13
-30 -16 -60 -12 -43 6 -50 -2 -23 -28 15 -15 43 -17 80 -4 23 8 15 -17 -11
-29 -32 -16 -91 -1 -106 28 -40 75 61 159 120 100z m204 4 c10 -10 16 -33 16
-65 0 -37 4 -49 15 -49 8 0 15 -4 15 -10 0 -5 -18 -10 -40 -10 -22 0 -40 5
-40 10 0 6 5 10 11 10 6 0 9 19 7 47 -3 54 -22 66 -63 39 -19 -12 -25 -25 -25
-51 0 -24 5 -35 15 -35 8 0 15 -4 15 -10 0 -5 -20 -10 -45 -10 -25 0 -45 5
-45 10 0 6 7 10 15 10 11 0 15 12 15 50 0 38 -4 50 -15 50 -8 0 -15 5 -15 10
0 14 58 12 62 -2 3 -8 11 -7 28 5 30 21 54 22 74 1z m-1454 -3 c0 -5 -5 -11
-11 -13 -11 -4 18 -78 31 -78 13 0 42 74 31 78 -24 8 -9 22 24 22 19 0 35 -4
35 -10 0 -5 -4 -10 -10 -10 -5 0 -23 -27 -40 -59 -16 -33 -34 -62 -40 -66 -5
-3 -24 23 -42 60 -18 36 -38 65 -45 65 -7 0 -13 5 -13 10 0 6 18 10 40 10 22
0 40 -4 40 -9z"/>
<path d="M10400 8815 l0 -697 353 4 c323 4 358 6 430 26 163 45 289 133 373
260 84 126 123 319 104 511 -31 306 -178 484 -466 563 -73 20 -108 22 -436 26
l-358 4 0 -697z"/>
<path d="M10142 5178 c-7 -7 -12 -27 -12 -45 0 -26 5 -34 24 -39 36 -9 66 12
66 44 0 33 -16 52 -45 52 -12 0 -26 -5 -33 -12z"/>
<path d="M10447 5254 c-4 -4 -7 -43 -7 -86 0 -69 2 -78 19 -78 32 0 81 22 91
40 26 49 -3 120 -49 120 -11 0 -26 2 -33 5 -8 3 -17 2 -21 -1z"/>
<path d="M9961 5176 c-11 -13 -11 -17 2 -22 25 -9 62 0 62 16 0 21 -49 25 -64
6z"/>
<path d="M10671 5176 c-11 -13 -11 -17 2 -22 25 -9 62 0 62 16 0 21 -49 25
-64 6z"/>
<path d="M11031 5176 c-11 -13 -11 -17 2 -22 25 -9 62 0 62 16 0 21 -49 25
-64 6z"/>
<path d="M11300 5170 c-25 -46 17 -95 65 -77 19 8 31 56 18 76 -16 26 -69 26
-83 1z"/>
<path d="M11518 5179 c-12 -6 -18 -22 -18 -44 0 -29 4 -36 27 -41 46 -12 79
28 62 74 -9 24 -41 29 -71 11z"/>
<path d="M12033 5183 c-7 -2 -13 -11 -13 -19 0 -23 64 -14 68 9 3 12 -3 17
-20 16 -13 0 -29 -3 -35 -6z"/>
</g>
</svg>
